{"title":"Qualcuno paghera' - Uppercut Man [DVDRip-XviD-Ita/Eng-Mp3][Tntv","uid":5938794,"size":1555177472,"categoryP":"video","categoryS":"movies","magnet":"?xt=urn:btih:84590c70b8bf55b3f2e7aaab56c0d01f87c366c8&amp;dn=Qualcuno+paghera%5C%27+-+Uppercut+Man+%5BDVDRip-XviD-Ita%2FEng-Mp3%5D%5BTntv&amp;tr=udp%3A%2F%2Ftracker.openbittorrent.com%3A80&amp;tr=udp%3A%2F%2Fopen.demonii.com%3A1337&amp;tr=udp%3A%2F%2Ftracker.coppersurfer.tk%3A6969&amp;tr=udp%3A%2F%2Fexodus.desync.com%3A6969","seeders":0,"leechers":1,"uploader":"maxneb","files":1,"time":1289061606,"description":"Qualcuno paghera' - Uppercut Man [DVDRip-XviD-Ita/Eng-Mp3][Tntvillage.Scambioetico]\n\n\n\n\nGeneral\nComplete name                    : C:\\Qualcuno paghera' - Uppercut Man [DVDRip-XviD-Ita-Eng-Mp3][RiP By MaX].avi\nFormat                           : AVI\nFormat/Info                      : Audio Video Interleave\nFile size                        : 1.45 GiB\nDuration                         : 1h 33mn\nOverall bit rate                 : 2 218 Kbps\nWriting application              : VirtualDubMod 1.5.10.2 (build 2540/release)\nWriting library                  : VirtualDubMod build 2540/release\n\nVideo\nID                               : 0\nFormat                           : MPEG-4 Visual\nFormat profile                   : Advanced Simple@L5\nFormat settings, BVOP            : Yes\nFormat settings, QPel            : No\nFormat settings, GMC             : No warppoints\nFormat settings, Matrix          : Default (H.263)\nCodec ID                         : XVID\nCodec ID/Hint                    : XviD\nDuration                         : 1h 33mn\nBit rate                         : 1 948 Kbps\nWidth                            : 640 pixels\nHeight                           : 480 pixels\nDisplay aspect ratio             : 4:3\nFrame rate                       : 23.976 fps\nColor space                      : YUV\nChroma subsampling               : 4:2:0\nBit depth                        : 8 bits\nScan type                        : Progressive\nBits/(Pixel*Frame)               : 0.264\nStream size                      : 1.27 GiB (88%)\nWriting library                  : XviD 1.2.1 (UTC 2008-12-04)\n\nAudio #1\nID                               : 1\nFormat                           : MPEG Audio\nFormat version                   : Version 1\nFormat profile                   : Layer 3\nMode                             : Joint stereo\nMode extension                   : MS Stereo\nCodec ID                         : 55\nCodec ID/Hint                    : MP3\nDuration                         : 1h 33mn\nBit rate mode                    : Constant\nBit rate                         : 128 Kbps\nChannel(s)                       : 2 channels\nSampling rate                    : 48.0 KHz\nStream size                      : 85.6 MiB (6%)\nAlignment                        : Aligned on interleaves\nInterleave, duration             : 42 ms (1.00 video frame)\nInterleave, preload duration     : 504 ms\nWriting library                  : LAME3.98r\nEncoding settings                : -m j -V 4 -q 2 -lowpass 17 -b 128\n\nAudio #2\nID                               : 2\nFormat                           : MPEG Audio\nFormat version                   : Version 1\nFormat profile                   : Layer 3\nMode                             : Joint stereo\nMode extension                   : MS Stereo\nCodec ID                         : 55\nCodec ID/Hint                    : MP3\nDuration                         : 1h 33mn\nBit rate mode                    : Constant\nBit rate                         : 128 Kbps\nChannel(s)                       : 2 channels\nSampling rate                    : 48.0 KHz\nStream size                      : 85.6 MiB (6%)\nAlignment                        : Aligned on interleaves\nInterleave, duration             : 42 ms (1.00 video frame)\nInterleave, preload duration     : 504 ms\nWriting library                  : LAME3.98r\nEncoding settings                : -m j -V 4 -q 2 -lowpass 17 -b 128","torrent":{"xt":"urn:btih:84590c70b8bf55b3f2e7aaab56c0d01f87c366c8","amp;dn":"Qualcuno+paghera%5C%27+-+Uppercut+Man+%5BDVDRip-XviD-Ita%2FEng-Mp3%5D%5BTntv","amp;tr":["udp%3A%2F%2Ftracker.openbittorrent.com%3A80","udp%3A%2F%2Fopen.demonii.com%3A1337","udp%3A%2F%2Ftracker.coppersurfer.tk%3A6969","udp%3A%2F%2Fexodus.desync.com%3A6969"],"infoHash":"84590c70b8bf55b3f2e7aaab56c0d01f87c366c8","infoHashBuffer":{"type":"Buffer","data":[132,89,12,112,184,191,85,179,242,231,170,171,86,192,208,31,135,195,102,200]},"announce":[],"urlList":[]}}